<svg xmlns="http://www.w3.org/2000/svg" viewBox="0 0 950 600">
  <rect width="950" height="600" fill="#f8f9fa" />

  <rect x="50" y="50" width="250" height="450" rx="10" ry="10" fill="#FF9900" fill-opacity="0.1" stroke="#FF9900" stroke-width="2" />
  <text x="175" y="80" font-family="Arial" font-size="18" text-anchor="middle" font-weight="bold" fill="#232F3E">AWS Environment</text>

  <rect x="75" y="100" width="200" height="120" rx="5" ry="5" fill="#FFFFFF" stroke="#232F3E" stroke-width="2" />
  <text x="175" y="125" font-family="Arial" font-size="14" text-anchor="middle" font-weight="bold" fill="#232F3E">Security Systems</text>

  <rect x="95" y="140" width="40" height="40" rx="5" ry="5" fill="#FFFFFF" stroke="#232F3E" stroke-width="1" />
  <text x="115" y="165" font-family="Arial" font-size="10" text-anchor="middle" fill="#232F3E">WAF</text>

  <rect x="155" y="140" width="40" height="40" rx="5" ry="5" fill="#FFFFFF" stroke="#232F3E" stroke-width="1" />
  <text x="175" y="165" font-family="Arial" font-size="10" text-anchor="middle" fill="#232F3E">CloudTrail</text>

  <rect x="215" y="140" width="40" height="40" rx="5" ry="5" fill="#FFFFFF" stroke="#232F3E" stroke-width="1" />
  <text x="235" y="165" font-family="Arial" font-size="10" text-anchor="middle" fill="#232F3E">GuardDuty</text>

  <text x="175" y="200" font-family="Arial" font-size="10" text-anchor="middle" fill="#232F3E">~5 min generation delay</text>

  <rect x="75" y="260" width="200" height="100" rx="5" ry="5" fill="#FFFFFF" stroke="#232F3E" stroke-width="2" />
  <text x="175" y="285" font-family="Arial" font-size="14" text-anchor="middle" font-weight="bold" fill="#232F3E">S3 Buckets</text>
  <text x="175" y="305" font-family="Arial" font-size="10" text-anchor="middle" fill="#232F3E">Secure log storage</text>
  <text x="175" y="320" font-family="Arial" font-size="10" text-anchor="middle" fill="#232F3E">Versioning enabled</text>
  <text x="175" y="335" font-family="Arial" font-size="10" text-anchor="middle" fill="#232F3E">Encryption at rest</text>

  <rect x="75" y="400" width="200" height="80" rx="5" ry="5" fill="#FFFFFF" stroke="#232F3E" stroke-width="2" />
  <text x="175" y="425" font-family="Arial" font-size="14" text-anchor="middle" font-weight="bold" fill="#232F3E">S3 Event Notifications</text>
  <text x="175" y="445" font-family="Arial" font-size="10" text-anchor="middle" fill="#232F3E">Real-time trigger on object creation</text>
  <text x="175" y="460" font-family="Arial" font-size="10" text-anchor="middle" fill="#232F3E">~1 sec notification delay</text>

  <path d="M175 220 L175 260" stroke="#232F3E" stroke-width="2" marker-end="url(#arrow)" />
  <path d="M175 360 L175 400" stroke="#232F3E" stroke-width="2" marker-end="url(#arrow)" />

  <rect x="350" y="50" width="250" height="450" rx="10" ry="10" fill="#3776AB" fill-opacity="0.1" stroke="#3776AB" stroke-width="2" />
  <text x="475" y="80" font-family="Arial" font-size="18" text-anchor="middle" font-weight="bold" fill="#3776AB">Python Connector</text>

  <rect x="375" y="130" width="200" height="80" rx="5" ry="5" fill="#FFFFFF" stroke="#3776AB" stroke-width="2" />
  <text x="475" y="155" font-family="Arial" font-size="14" text-anchor="middle" font-weight="bold" fill="#3776AB">Log Processing</text>
  <text x="475" y="175" font-family="Arial" font-size="10" text-anchor="middle" fill="#3776AB">Retrieval from S3</text>
  <text x="475" y="190" font-family="Arial" font-size="10" text-anchor="middle" fill="#3776AB">Parsing raw logs</text>
  <text x="475" y="205" font-family="Arial" font-size="10" text-anchor="middle" fill="#3776AB">~2-5 sec processing time</text>

  <rect x="375" y="250" width="200" height="80" rx="5" ry="5" fill="#FFFFFF" stroke="#3776AB" stroke-width="2" />
  <text x="475" y="275" font-family="Arial" font-size="14" text-anchor="middle" font-weight="bold" fill="#3776AB">Data Transformation</text>
  <text x="475" y="295" font-family="Arial" font-size="10" text-anchor="middle" fill="#232F3E">Format conversion</text>
  <text x="475" y="310" font-family="Arial" font-size="10" text-anchor="middle" fill="#232F3E">Field normalization</text>
  <text x="475" y="325" font-family="Arial" font-size="10" text-anchor="middle" fill="#232F3E">~1-3 sec transformation time</text>

  <rect x="375" y="370" width="200" height="80" rx="5" ry="5" fill="#FFFFFF" stroke="#3776AB" stroke-width="2" />
  <text x="475" y="395" font-family="Arial" font-size="14" text-anchor="middle" font-weight="bold" fill="#3776AB">Log Batching</text>
  <text x="475" y="415" font-family="Arial" font-size="10" text-anchor="middle" fill="#232F3E">Optimized 256KB batches</text>
  <text x="475" y="430" font-family="Arial" font-size="10" text-anchor="middle" fill="#232F3E">Compression applied</text>
  <text x="475" y="445" font-family="Arial" font-size="10" text-anchor="middle" fill="#232F3E">~1-2 sec batching time</text>

  <path d="M475 210 L475 250" stroke="#3776AB" stroke-width="2" marker-end="url(#arrow)" />
  <path d="M475 330 L475 370" stroke="#3776AB" stroke-width="2" marker-end="url(#arrow)" />

  <rect x="650" y="50" width="250" height="450" rx="10" ry="10" fill="#0078D4" fill-opacity="0.1" stroke="#0078D4" stroke-width="2" />
  <text x="775" y="80" font-family="Arial" font-size="18" text-anchor="middle" font-weight="bold" fill="#0078D4">Microsoft Sentinel</text>

  <rect x="675" y="130" width="200" height="80" rx="5" ry="5" fill="#FFFFFF" stroke="#0078D4" stroke-width="2" />
  <text x="775" y="155" font-family="Arial" font-size="14" text-anchor="middle" font-weight="bold" fill="#0078D4">Ingestion API</text>
  <text x="775" y="175" font-family="Arial" font-size="10" text-anchor="middle" fill="#0078D4">Secure endpoint</text>
  <text x="775" y="190" font-family="Arial" font-size="10" text-anchor="middle" fill="#0078D4">Log validation</text>
  <text x="775" y="205" font-family="Arial" font-size="10" text-anchor="middle" fill="#0078D4">~2-3 sec ingestion time</text>

  <rect x="675" y="250" width="200" height="80" rx="5" ry="5" fill="#FFFFFF" stroke="#0078D4" stroke-width="2" />
  <text x="775" y="275" font-family="Arial" font-size="14" text-anchor="middle" font-weight="bold" fill="#0078D4">Security Analytics</text>
  <text x="775" y="295" font-family="Arial" font-size="10" text-anchor="middle" fill="#0078D4">Correlation engine</text>
  <text x="775" y="310" font-family="Arial" font-size="10" text-anchor="middle" fill="#0078D4">Pattern matching</text>
  <text x="775" y="325" font-family="Arial" font-size="10" text-anchor="middle" fill="#0078D4">~5-10 sec analysis time</text>

  <rect x="675" y="370" width="200" height="80" rx="5" ry="5" fill="#FFFFFF" stroke="#0078D4" stroke-width="2" />
  <text x="775" y="395" font-family="Arial" font-size="14" text-anchor="middle" font-weight="bold" fill="#0078D4">Threat Detection &amp; Alerts</text>
  <text x="775" y="415" font-family="Arial" font-size="10" text-anchor="middle" fill="#0078D4">Real-time notifications</text>
  <text x="775" y="430" font-family="Arial" font-size="10" text-anchor="middle" fill="#0078D4">Automated response</text>
  <text x="775" y="445" font-family="Arial" font-size="10" text-anchor="middle" fill="#0078D4">~1-2 sec alert generation</text>

  <path d="M775 210 L775 250" stroke="#0078D4" stroke-width="2" marker-end="url(#arrow)" />
  <path d="M775 330 L775 370" stroke="#0078D4" stroke-width="2" marker-end="url(#arrow)" />

  <path d="M275 440 L375 170" stroke="#333333" stroke-width="2" marker-end="url(#arrow)" />
  <path d="M575 410 L675 170" stroke="#333333" stroke-width="2" marker-end="url(#arrow)" />

  <rect x="50" y="520" width="850" height="60" rx="5" ry="5" fill="#FFFFFF" stroke="#333333" stroke-width="2" />
  <text x="475" y="545" font-family="Arial" font-size="14" text-anchor="middle" font-weight="bold" fill="#333333">Total Processing Time: ~10-20 seconds from log creation to alert</text>
  <text x="475" y="565" font-family="Arial" font-size="12" text-anchor="middle" fill="#333333">(Compared to hours with manual processing)</text>

  <defs>
    <marker id="arrow" markerWidth="10" markerHeight="10" refX="9" refY="3" orient="auto" markerUnits="strokeWidth">
      <path d="M0,0 L0,6 L9,3 z" fill="#333333" />
    </marker>
  </defs>
</svg>